<?xml version="1.0" encoding="UTF-8" standalone="no"?>
<!DOCTYPE svg PUBLIC "-//W3C//DTD SVG 1.1//EN" "http://www.w3.org/Graphics/SVG/1.1/DTD/svg11.dtd">
<svg width="100%" height="100%" viewBox="0 0 2610 486" version="1.1" xmlns="http://www.w3.org/2000/svg" xmlns:xlink="http://www.w3.org/1999/xlink" xml:space="preserve" xmlns:serif="http://www.serif.com/" style="fill-rule:evenodd;clip-rule:evenodd;stroke-linejoin:round;stroke-miterlimit:2;">
    <g transform="matrix(1,0,0,1,-269.011,-1333.53)">
        <g transform="matrix(5.55556,0,0,5.55556,0,0)">
            <g>
                <g transform="matrix(1,0,0,1,121.673,274.629)">
                    <path d="M0,52.767L-17.238,52.767L-17.238,52.187L9.198,1.74C9.536,1.064 9.874,0.605 10.212,0.363C10.549,0.121 11.129,0 11.951,0L30.13,0C30.95,0 31.542,0.121 31.904,0.363C32.266,0.605 32.64,1.064 33.027,1.74L59.246,52.187L59.246,52.767L14.124,52.767L9.778,41.315L9.778,39.866L28.573,39.866C29.707,39.866 30.709,39.877 31.578,39.902C32.447,39.926 33.219,39.962 33.896,40.01C34.572,40.059 35.224,40.108 35.852,40.155L36.069,39.648C35.779,39.117 35.477,38.597 35.164,38.089C34.849,37.582 34.499,36.966 34.113,36.242C33.726,35.516 33.268,34.647 32.737,33.632C32.205,32.617 31.553,31.337 30.782,29.79L22.453,13.12C22.259,12.782 21.92,12.612 21.438,12.612L20.569,12.612C20.135,12.612 19.82,12.782 19.628,13.12L0,52.767Z" style="fill:rgb(28,195,244);fill-rule:nonzero;"/>
                </g>
                <g transform="matrix(1,0,0,1,0,31.376)">
                    <rect x="185.19" y="239.484" width="13.109" height="56.536" style="fill:rgb(28,195,244);"/>
                </g>
                <g transform="matrix(1,0,0,1,0,31.376)">
                    <rect x="205.035" y="239.484" width="13.109" height="56.536" style="fill:rgb(28,195,244);"/>
                </g>
                <g transform="matrix(1,0,0,1,0,31.376)">
                    <path d="M224.878,256.227L237.987,256.227L237.987,296.02L224.878,296.02L224.878,256.227ZM224.878,239.484L237.987,239.484L237.987,249.994L224.878,249.994L224.878,239.484Z" style="fill:rgb(28,195,244);fill-rule:nonzero;"/>
                </g>
                <g transform="matrix(1,0,0,1,275.142,297.46)">
                    <path d="M0,20.079C0.531,20.079 0.797,19.789 0.797,19.209L0.797,13.121L-16.441,13.121C-17.31,13.121 -17.926,13.338 -18.288,13.773C-18.65,14.208 -18.831,14.86 -18.831,15.73L-18.831,17.47C-18.831,18.292 -18.65,18.932 -18.288,19.391C-17.926,19.85 -17.31,20.079 -16.441,20.079L0,20.079ZM-30.564,0.002L-30.564,-9.857L6.374,-9.857C8.981,-9.857 10.899,-9.132 12.132,-7.682C13.362,-6.232 13.978,-4.13 13.978,-1.376L13.978,28.197C13.978,29.356 13.423,29.936 12.312,29.936L-22.38,29.936C-23.829,29.936 -25.121,29.755 -26.255,29.392C-27.39,29.03 -28.355,28.414 -29.152,27.545C-29.949,26.675 -30.553,25.527 -30.962,24.101C-31.374,22.677 -31.578,20.901 -31.578,18.774L-31.578,15.803C-31.578,12.033 -30.77,9.341 -29.152,7.721C-27.535,6.102 -25.277,5.293 -22.38,5.293L-2.173,5.293L0.29,11.164L0.797,11.164L0.797,3.118C0.797,2.007 0.567,1.21 0.109,0.726C-0.351,0.244 -1.039,0.002 -1.956,0.002L-30.564,0.002Z" style="fill:rgb(128,128,128);fill-rule:nonzero;"/>
                </g>
                <g transform="matrix(1,0,0,1,295.494,327.396)">
                    <path d="M0,-39.793L32.447,-39.793C35.392,-39.793 37.902,-39.418 39.979,-38.669C42.055,-37.92 43.733,-36.857 45.013,-35.48C46.292,-34.103 47.222,-32.447 47.802,-30.515C48.381,-28.582 48.671,-26.407 48.671,-23.991L48.671,0L35.562,0L35.562,-23.122C35.562,-25.441 35.127,-27.06 34.258,-27.978C33.389,-28.896 31.964,-29.355 29.984,-29.355L15.789,-29.355L13.616,-35.153L13.109,-35.153L13.109,0L0,0L0,-39.793Z" style="fill:rgb(128,128,128);fill-rule:nonzero;"/>
                </g>
                <g transform="matrix(1,0,0,1,378.856,304.419)">
                    <path d="M0,-6.813L-11.588,-6.813L-11.588,22.977L-24.697,22.977L-24.697,-6.813L-29.912,-6.813L-33.534,-16.236L-33.534,-16.816L-24.697,-16.816L-24.697,-29.79L-11.588,-29.79L-11.588,-16.816L0,-16.816L0,-6.813Z" style="fill:rgb(128,128,128);fill-rule:nonzero;"/>
                </g>
                <g transform="matrix(1,0,0,1,383.709,327.396)">
                    <path d="M0,-39.793L13.109,-39.793L13.109,-17.541C13.109,-15.317 13.567,-13.783 14.485,-12.939C15.401,-12.092 16.972,-11.67 19.192,-11.67L31.144,-11.67C33.461,-11.67 35.078,-12.116 35.996,-13.011C36.912,-13.904 37.372,-15.414 37.372,-17.541L37.372,-39.793L50.481,-39.793L50.481,-15.801C50.481,-13.384 50.191,-11.21 49.612,-9.277C49.033,-7.345 48.103,-5.689 46.824,-4.313C45.544,-2.936 43.865,-1.872 41.79,-1.123C39.714,-0.374 37.179,0 34.186,0L16.151,0C13.205,0 10.706,-0.374 8.654,-1.123C6.602,-1.872 4.936,-2.936 3.657,-4.313C2.377,-5.689 1.448,-7.345 0.869,-9.277C0.289,-11.21 0,-13.384 0,-15.801L0,-39.793Z" style="fill:rgb(128,128,128);fill-rule:nonzero;"/>
                </g>
                <g transform="matrix(1,0,0,1,481.412,327.396)">
                    <path d="M0,-39.793L20.497,-39.793C23.441,-39.793 25.953,-39.418 28.029,-38.669C30.104,-37.92 31.783,-36.857 33.063,-35.48C34.342,-34.103 35.272,-32.447 35.852,-30.515C36.431,-28.582 36.721,-26.407 36.721,-23.991L36.721,0L23.611,0L23.611,-23.194C23.611,-25.514 23.177,-27.119 22.308,-28.015C21.438,-28.908 20.037,-29.355 18.106,-29.355L5.794,-29.355C6.276,-27.856 6.519,-26.068 6.519,-23.991L6.519,0L-6.591,0L-6.591,-23.194C-6.591,-25.514 -7.025,-27.119 -7.895,-28.015C-8.764,-28.908 -10.165,-29.355 -12.096,-29.355L-24.697,-29.355L-26.87,-35.153L-27.377,-35.153L-27.377,0L-40.486,0L-40.486,-39.793L-9.705,-39.793C-6.856,-39.793 -4.49,-39.418 -2.607,-38.669C-0.725,-37.92 0.893,-36.894 2.245,-35.589L2.535,-35.806C2.101,-36.337 1.666,-36.881 1.231,-37.438C0.797,-37.992 0.386,-38.584 0,-39.213L0,-39.793Z" style="fill:rgb(128,128,128);fill-rule:nonzero;"/>
                </g>
                <g transform="matrix(1,0,0,1,0,-50.173)">
                    <rect x="118.26" y="300.862" width="15.321" height="15.329" style="fill:rgb(128,128,128);"/>
                </g>
                <g transform="matrix(1,0,0,1,0,66.504)">
                    <rect x="74.153" y="239.484" width="21.376" height="21.408" style="fill:rgb(28,195,244);"/>
                </g>
                <g transform="matrix(1,0,0,1,0,13.302)">
                    <rect x="59.11" y="268.464" width="16.625" height="16.65" style="fill:rgb(128,128,128);"/>
                </g>
                <g transform="matrix(1,0,0,1,0,-35.467)">
                    <rect x="65.577" y="295.623" width="11.084" height="11.101" style="fill:rgb(128,128,128);"/>
                </g>
                <g transform="matrix(1,0,0,1,0,-75.707)">
                    <rect x="101.999" y="315.743" width="11.083" height="11.101" style="fill:rgb(128,128,128);"/>
                </g>
                <g transform="matrix(1,0,0,1,0,14.888)">
                    <rect x="95.611" y="268.464" width="15.042" height="15.064" style="fill:rgb(28,195,244);"/>
                </g>
                <g transform="matrix(1,0,0,1,0,-31.101)">
                    <rect x="85.632" y="291.458" width="15.042" height="15.065" style="fill:rgb(28,195,244);"/>
                </g>
                <g transform="matrix(1,0,0,1,0,72.848)">
                    <rect x="48.422" y="239.484" width="15.042" height="15.064" style="fill:rgb(28,195,244);"/>
                </g>
            </g>
        </g>
    </g>
</svg>
